<svg width="21" height="21" viewBox="0 0 21 21" fill="none" xmlns="http://www.w3.org/2000/svg">
<path d="M12.8936 0.773438C13.2451 1.16406 13.2451 1.75 12.8936 2.10156L19.0654 8.27344C19.417 7.92188 20.0029 7.92188 20.3936 8.27344C20.7451 8.66406 20.7451 9.25 20.3936 9.60156L19.7295 10.2656L16.0186 13.9766L15.3936 14.6016C15.0029 14.9922 14.417 14.9922 14.0654 14.6016C13.7139 14.25 13.6748 13.7031 14.0264 13.3516L7.85449 7.14062C7.46387 7.49219 6.91699 7.45312 6.56543 7.10156C6.1748 6.75 6.1748 6.16406 6.56543 5.8125L7.19043 5.1875L10.9014 1.4375L11.5654 0.773438C11.917 0.421875 12.5029 0.421875 12.8545 0.773438H12.8936ZM11.5654 3.42969L9.14355 5.8125L15.3545 12.0234L17.7373 9.60156L11.5654 3.42969ZM9.37793 10.4609L10.7061 11.7891L8.75293 13.7422L9.02637 14.0156C9.53418 14.4844 9.53418 15.3047 9.02637 15.7734L4.65137 20.1484C4.18262 20.6562 3.3623 20.6562 2.89355 20.1484L1.01855 18.2734C0.510742 17.8047 0.510742 16.9844 1.01855 16.5156L5.39355 12.1406C5.8623 11.6328 6.68262 11.6328 7.15137 12.1406L7.4248 12.4141L9.37793 10.4609ZM6.29199 13.8984L2.77637 17.375L3.79199 18.3906L7.26855 14.875L6.29199 13.8984Z" fill="#E8E8E9"/>
</svg>
