<svg width="21" height="21" viewBox="0 0 21 21" fill="none" xmlns="http://www.w3.org/2000/svg">
<path d="M13.0601 0.773438C13.4116 1.16406 13.4116 1.75 13.0601 2.10156L19.2319 8.27344C19.5835 7.92188 20.1694 7.92188 20.5601 8.27344C20.9116 8.66406 20.9116 9.25 20.5601 9.60156L19.896 10.2656L16.1851 13.9766L15.5601 14.6016C15.1694 14.9922 14.5835 14.9922 14.2319 14.6016C13.8804 14.25 13.8413 13.7031 14.1929 13.3516L8.021 7.14062C7.63037 7.49219 7.0835 7.45312 6.73193 7.10156C6.34131 6.75 6.34131 6.16406 6.73193 5.8125L7.35693 5.1875L11.0679 1.4375L11.7319 0.773438C12.0835 0.421875 12.6694 0.421875 13.021 0.773438H13.0601ZM11.7319 3.42969L9.31006 5.8125L15.521 12.0234L17.9038 9.60156L11.7319 3.42969ZM9.54443 10.4609L10.8726 11.7891L8.91943 13.7422L9.19287 14.0156C9.70068 14.4844 9.70068 15.3047 9.19287 15.7734L4.81787 20.1484C4.34912 20.6562 3.52881 20.6562 3.06006 20.1484L1.18506 18.2734C0.677246 17.8047 0.677246 16.9844 1.18506 16.5156L5.56006 12.1406C6.02881 11.6328 6.84912 11.6328 7.31787 12.1406L7.59131 12.4141L9.54443 10.4609ZM6.4585 13.8984L2.94287 17.375L3.9585 18.3906L7.43506 14.875L6.4585 13.8984Z" fill="#1C1D20"/>
</svg>

