<svg width="24" height="21" viewBox="0 0 24 21" fill="none" xmlns="http://www.w3.org/2000/svg">
<path d="M1.52051 0.5H3.27832C4.1377 0.5 4.91895 1.00781 5.27051 1.75H21.3252C22.3408 1.75 23.083 2.72656 22.8096 3.74219L21.208 9.67969C20.8955 10.9297 19.7627 11.75 18.5127 11.75H7.22363L7.45801 12.8828C7.53613 13.3125 7.92676 13.625 8.35645 13.625H19.6455C20.1533 13.625 20.583 14.0547 20.583 14.5625C20.583 15.1094 20.1533 15.5 19.6455 15.5H8.35645C7.02832 15.5 5.85645 14.5625 5.62207 13.2344L3.59082 2.64844C3.55176 2.49219 3.43457 2.375 3.27832 2.375H1.52051C0.973633 2.375 0.583008 1.98438 0.583008 1.4375C0.583008 0.929688 0.973633 0.5 1.52051 0.5ZM5.7002 3.625L6.87207 9.875H18.5127C18.9424 9.875 19.2939 9.60156 19.4111 9.21094L20.8955 3.625H5.7002ZM7.45801 20.5C6.75488 20.5 6.16895 20.1484 5.81738 19.5625C5.46582 19.0156 5.46582 18.2734 5.81738 17.6875C6.16895 17.1406 6.75488 16.75 7.45801 16.75C8.12207 16.75 8.70801 17.1406 9.05957 17.6875C9.41113 18.2734 9.41113 19.0156 9.05957 19.5625C8.70801 20.1484 8.12207 20.5 7.45801 20.5ZM20.583 18.625C20.583 19.3281 20.1924 19.9141 19.6455 20.2656C19.0596 20.6172 18.3174 20.6172 17.7705 20.2656C17.1846 19.9141 16.833 19.3281 16.833 18.625C16.833 17.9609 17.1846 17.375 17.7705 17.0234C18.3174 16.6719 19.0596 16.6719 19.6455 17.0234C20.1924 17.375 20.583 17.9609 20.583 18.625Z" fill="#1C1D20"/>
</svg>
