<?xml version="1.0" encoding="iso-8859-1"?>
<!-- Uploaded to: SVG Repo, www.svgrepo.com, Generator: SVG Repo Mixer Tools -->
<svg fill="#000000" height="800px" width="800px" version="1.1" id="Layer_1" xmlns="http://www.w3.org/2000/svg" xmlns:xlink="http://www.w3.org/1999/xlink" 
	 viewBox="0 0 512.002 512.002" xml:space="preserve">
<g>
	<g>
		<path d="M503.469,452.269h-25.6v-51.2c0-4.719-3.814-8.533-8.533-8.533H324.269c-4.719,0-8.533,3.814-8.533,8.533v51.2h-25.6
			c-4.719,0-8.533,3.814-8.533,8.533v42.667c0,4.719,3.814,8.533,8.533,8.533h213.333c4.719,0,8.533-3.814,8.533-8.533v-42.667
			C512.002,456.083,508.188,452.269,503.469,452.269z M332.802,409.602h128v42.667h-128V409.602z M494.935,494.935H298.669v-25.6
			h196.267V494.935z"/>
	</g>
</g>
<g>
	<g>
		<path d="M390.035,164.636l-25.6-25.6c-3.337-3.337-8.73-3.337-12.066,0l-11.034,11.034l-98.867-98.867l11.034-11.034
			c3.337-3.336,3.337-8.73,0-12.066l-25.6-25.6c-3.337-3.336-8.73-3.336-12.066,0l-85.333,85.333c-3.336,3.336-3.336,8.73,0,12.066
			l25.6,25.6c1.664,1.664,3.849,2.5,6.033,2.5c2.185,0,4.369-0.836,6.033-2.5l11.034-11.034l26.334,26.334l-47.667,47.667
			l-6.767-6.767c-3.337-3.336-8.73-3.336-12.066,0l-25.6,25.6c-3.336,3.337-3.336,8.73,0,12.066l6.767,6.767l-117.7,117.7
			c-3.336,3.336-3.336,8.73,0,12.066l34.133,34.133c1.664,1.664,3.849,2.5,6.033,2.5c2.185,0,4.369-0.836,6.033-2.5l117.7-117.7
			l6.767,6.767c1.664,1.664,3.849,2.5,6.033,2.5c2.185,0,4.369-0.836,6.033-2.5l25.6-25.6c3.337-3.337,3.337-8.73,0-12.066
			l-6.767-6.767l47.667-47.667l26.334,26.334l-11.034,11.034c-3.337,3.337-3.337,8.73,0,12.066l25.6,25.6
			c1.664,1.664,3.849,2.5,6.033,2.5c2.185,0,4.369-0.836,6.033-2.5l85.333-85.333C393.372,173.365,393.372,167.972,390.035,164.636z
			 M162.135,107.403l-13.534-13.534l73.267-73.267l13.534,13.534L162.135,107.403z M42.669,371.936l-22.067-22.067l111.667-111.667
			l22.067,22.067L42.669,371.936z M179.202,261.003l-47.667-47.667l13.534-13.534l47.667,47.667L179.202,261.003z M192.002,222.603
			l-22.067-22.067l47.667-47.667l22.067,22.067L192.002,222.603z M191.268,102.402l39.134-39.134l98.867,98.867l-39.134,39.134
			L191.268,102.402z M298.669,243.936l-13.534-13.534l73.267-73.267l13.534,13.534L298.669,243.936z"/>
	</g>
</g>
</svg>